<svg width="110" height="83" viewBox="0 0 110 83" fill="none" xmlns="http://www.w3.org/2000/svg">
<path d="M87.9155 56.9742H107.546C107.546 60.5879 104.616 63.5178 101.002 63.5178H94.4588C90.8451 63.5178 87.9155 60.5879 87.9155 56.9742Z" fill="#D1D4D1"/>
<path d="M87.9155 27.5281H107.546V52.0666H87.9155V27.5281Z" fill="#E6E7E8"/>
<path d="M94.4588 16.0769H101.002C104.616 16.0769 107.546 19.0069 107.546 22.6205H87.9155C87.9155 19.0069 90.8451 16.0769 94.4588 16.0769Z" fill="#D1D4D1"/>
<path d="M91.1871 23.4385C90.7358 23.4385 90.3691 23.0719 90.3691 22.6205C90.3717 20.3631 92.2013 18.5331 94.4588 18.5309C94.9105 18.5309 95.2768 18.8972 95.2768 19.3485C95.2768 19.8003 94.9105 20.1665 94.4588 20.1665C93.1036 20.1665 92.0051 21.2651 92.0051 22.6205C92.0051 23.0719 91.6385 23.4385 91.1871 23.4385Z" fill="#E6E7E8"/>
<path d="M94.4588 61.0638C92.2013 61.0617 90.3717 59.2317 90.3691 56.9742C90.3691 56.5229 90.7358 56.1562 91.1871 56.1562C91.6385 56.1562 92.0051 56.5229 92.0051 56.9742C92.0051 58.3297 93.1036 59.4282 94.4588 59.4282C94.9105 59.4282 95.2768 59.7945 95.2768 60.2462C95.2768 60.6976 94.9105 61.0638 94.4588 61.0638Z" fill="#E6E7E8"/>
<path d="M107.546 32.1824L87.9155 38.9548V34.3009L107.546 27.5281V32.1824Z" fill="#E64C3C"/>
<path d="M107.546 44.4516L87.9155 51.224V46.5701L107.546 39.7974V44.4516Z" fill="#E64C3C"/>
<path d="M87.0974 22.6205H108.364C109.268 22.6205 110 23.3524 110 24.2565V25.8922C110 26.7959 109.268 27.5282 108.364 27.5282H87.0974C86.1936 27.5282 85.4614 26.7959 85.4614 25.8922V24.2565C85.4614 23.3524 86.1936 22.6205 87.0974 22.6205Z" fill="#A5A5A4"/>
<path d="M87.0974 52.0666H108.364C109.268 52.0666 110 52.7989 110 53.7026V55.3383C110 56.2424 109.268 56.9743 108.364 56.9743H87.0974C86.1936 56.9743 85.4614 56.2424 85.4614 55.3383V53.7026C85.4614 52.7989 86.1936 52.0666 87.0974 52.0666Z" fill="#A5A5A4"/>
<g clip-path="url(#clip0)">
<path d="M14.7383 19.5971L7.45012 24.4558L0 19.5971V17.1677C0 10.459 5.60024 4.85877 12.3089 4.85877H14.7383V19.5971Z" fill="#895D3C"/>
<path d="M82.9231 19.5971L75.473 24.4558L68.1848 19.5971V4.85877H70.6142C77.3229 4.85877 82.9231 10.459 82.9231 17.1677V19.5971Z" fill="#714C2F"/>
<path d="M82.9231 26.8852V80.4937C82.9231 81.8539 81.8545 82.9231 80.4937 82.9231H73.0436L68.1848 77.9023H34.1734L29.3146 82.9231H24.4558L19.5971 77.9023H14.7383L9.87951 82.9231H2.42939C1.06855 82.9231 0 81.8539 0 80.4937V26.8852H82.9231Z" fill="#E0F4FF"/>
<path d="M82.923 26.8852V80.4937C82.923 81.8539 81.8544 82.9231 80.4936 82.9231H73.0435L68.1847 77.9023H41.4614V26.8852H82.923Z" fill="#BBDCFF"/>
<path d="M73.0437 41.4615V82.9231H68.1849L63.3261 77.9023H58.4673L53.6086 82.9231H48.7498L43.891 77.9023H39.0322L34.1735 82.9231H29.3147V41.4615C29.3147 40.1007 30.3832 39.0322 31.7441 39.0322H70.6143C71.9751 39.0322 73.0437 40.1007 73.0437 41.4615Z" fill="#895D3C"/>
<path d="M73.0435 41.4615V82.9231H68.1847L63.3259 77.9023H58.4671L53.6084 82.9231H48.7496L43.8908 77.9023H41.4614V39.0322H70.6141C71.9749 39.0322 73.0435 40.1007 73.0435 41.4615Z" fill="#714C2F"/>
<path d="M34.1733 43.8909H48.7497V82.9231H34.1733V43.8909Z" fill="#64E1DC"/>
<path d="M53.6084 43.8909H68.1847V82.9231H53.6084V43.8909Z" fill="#00C8C8"/>
<path d="M73.0435 2.42939V24.4558H9.87939V2.42939C9.87939 1.06855 10.9479 0 12.3088 0H70.6141C71.9749 0 73.0435 1.06855 73.0435 2.42939Z" fill="#FA5E97"/>
<path d="M17.1677 58.4673C15.8252 58.4673 14.7383 57.3804 14.7383 56.0379V51.1791C14.7383 49.8366 15.8252 48.7497 17.1677 48.7497C18.5102 48.7497 19.5971 49.8366 19.5971 51.1791V56.0379C19.5971 57.3804 18.5102 58.4673 17.1677 58.4673Z" fill="#FA5E97"/>
<path d="M73.0435 2.42939V24.4558H41.4614V0H70.6141C71.9749 0 73.0435 1.06855 73.0435 2.42939Z" fill="#D94F88"/>
<path d="M41.4614 43.8909H48.7496V82.9231H41.4614V43.8909Z" fill="#00C8C8"/>
<path d="M56.0378 63.326H46.3203C44.9778 63.326 43.8909 62.2391 43.8909 60.8966C43.8909 59.5542 44.9778 58.4673 46.3203 58.4673H56.0378C57.3803 58.4673 58.4672 59.5542 58.4672 60.8966C58.4672 62.2391 57.3803 63.326 56.0378 63.326Z" fill="#714C2F"/>
<path d="M82.9231 19.5971V26.8852C82.9231 30.9177 79.5061 34.1734 75.473 34.1734C73.5782 34.1734 71.9263 33.4446 70.6142 32.2786C69.3021 33.4446 67.6502 34.1734 65.7554 34.1734C63.8606 34.1734 62.2088 33.4446 60.8966 32.2786C59.5845 33.4446 57.9327 34.1734 56.0379 34.1734C54.1431 34.1734 52.4912 33.4446 51.1791 32.2786C49.867 33.4446 48.2151 34.1734 46.3203 34.1734C44.4255 34.1734 42.7737 33.4446 41.4615 32.2786C40.1494 33.4446 38.4976 34.1734 36.6028 34.1734C34.708 34.1734 33.0561 33.4446 31.744 32.2786C30.4319 33.4446 28.78 34.1734 26.8852 34.1734C24.9904 34.1734 23.3386 33.4446 22.0264 32.2786C20.7143 33.4446 19.0625 34.1734 17.1677 34.1734C15.2729 34.1734 13.621 33.4446 12.3089 32.2786C10.9968 33.4446 9.34492 34.1734 7.45012 34.1734C3.41696 34.1734 0 30.9177 0 26.8852V19.5971H82.9231Z" fill="#FF7CB9"/>
<path d="M82.923 19.5971V26.8852C82.923 30.9177 79.506 34.1734 75.4728 34.1734C73.578 34.1734 71.9262 33.4446 70.6141 32.2786C69.3019 33.4446 67.6501 34.1734 65.7553 34.1734C63.8605 34.1734 62.2086 33.4446 60.8965 32.2786C59.5844 33.4446 57.9325 34.1734 56.0377 34.1734C54.143 34.1734 52.4911 33.4446 51.179 32.2786C49.8669 33.4446 48.215 34.1734 46.3202 34.1734C44.4254 34.1734 42.7735 33.4446 41.4614 32.2786V19.5971H82.923Z" fill="#FA5E97"/>
<path d="M17.1676 53.6085C13.1489 53.6085 9.87939 50.3389 9.87939 46.3203C9.87939 42.3017 13.1489 39.0322 17.1676 39.0322C21.1862 39.0322 24.4557 42.3017 24.4557 46.3203C24.4557 50.3389 21.1862 53.6085 17.1676 53.6085Z" fill="#FF7CB9"/>
<path d="M24.4557 56.0379C24.4557 54.696 23.3682 53.6085 22.0263 53.6085H12.3088C10.9669 53.6085 9.87939 54.696 9.87939 56.0379V56.9653L17.742 65.7554L24.4557 64.2535V56.0379Z" fill="#64E1DC"/>
<path d="M9.87939 82.9231H24.4557V79.5662L17.1676 70.9014L9.87939 72.1161V82.9231Z" fill="#64E1DC"/>
<path d="M9.87939 56.9653V72.1161L24.4557 79.5662V64.2535L9.87939 56.9653Z" fill="#FF7CB9"/>
</g>
<defs>
<clipPath id="clip0">
<rect width="82.9231" height="82.9231" fill="white"/>
</clipPath>
</defs>
</svg>
