<svg width="12" height="12" viewBox="0 0 12 12" fill="none" xmlns="http://www.w3.org/2000/svg">
<path fill-rule="evenodd" clip-rule="evenodd" d="M0.666667 0C0.298 0 0 0.298 0 0.666667C0 6.92533 5.07467 12 11.3333 12C11.702 12 12 11.702 12 11.3333V9C12 8.632 11.702 8.334 11.3333 8.334C10.5013 8.334 9.70133 8.2 8.952 7.95467C8.88533 7.93333 8.81533 7.92267 8.746 7.92267C8.576 7.92267 8.40533 7.988 8.27533 8.118L6.808 9.58667C4.92 8.62667 3.37667 7.08333 2.41533 5.196L3.882 3.72467C4.06533 3.542 4.11933 3.27867 4.04533 3.048C3.8 2.298 3.666 1.498 3.666 0.666667C3.666 0.298 3.368 0 3 0H0.666667Z" fill="#2F80ED"/>
</svg>
