<svg width="92" height="123" viewBox="0 0 92 123" fill="none" xmlns="http://www.w3.org/2000/svg">
<path d="M44.9021 109.703H53.1745V119.518C53.1745 121.066 51.94 122.322 50.417 122.322H47.6596C46.1367 122.322 44.9021 121.066 44.9021 119.518V109.703Z" fill="#2C3E50"/>
<path d="M76.613 109.703H84.8854V119.518C84.8854 121.066 83.6508 122.322 82.1279 122.322H79.3703C77.8474 122.322 76.6128 121.066 76.6128 119.518V109.703H76.613Z" fill="#2C3E50"/>
<path d="M86.8845 41H42.9028C40.0332 41.1842 37.8473 43.6889 38.0084 46.6084V104.095L41.2719 111.722C41.4513 112.184 41.8844 112.493 42.3729 112.507H87.4146C87.903 112.493 88.3362 112.184 88.5156 111.722L91.7791 104.095V46.6084C91.9401 43.6888 89.7543 41.1842 86.8845 41Z" fill="#CC4B4C"/>
<path d="M91.7786 104.095L88.5152 111.722C88.3358 112.184 87.9027 112.493 87.4142 112.507H42.3723C41.8837 112.493 41.4507 112.184 41.2714 111.722L38.0078 104.095H91.7786Z" fill="#C03A2B"/>
<path d="M46.2812 46.6087H83.5071C85.0301 46.6087 86.2647 47.8642 86.2647 49.4129V50.815C86.2647 52.3638 85.0301 53.6193 83.5071 53.6193H46.2812C44.7582 53.6193 43.5237 52.3638 43.5237 50.815V49.4129C43.5237 47.8642 44.7582 46.6087 46.2812 46.6087Z" fill="#E57E25"/>
<path d="M47.6599 98.4863C49.9443 98.4863 51.7961 96.603 51.7961 94.2799C51.7961 91.9569 49.9443 90.0736 47.6599 90.0736C45.3755 90.0736 43.5237 91.9569 43.5237 94.2799C43.5237 96.603 45.3755 98.4863 47.6599 98.4863Z" fill="#F0C419"/>
<path d="M82.1284 98.4863C84.4128 98.4863 86.2646 96.6031 86.2646 94.28C86.2646 91.9569 84.4128 90.0737 82.1284 90.0737C79.844 90.0737 77.9922 91.9569 77.9922 94.28C77.9922 96.6031 79.844 98.4863 82.1284 98.4863Z" fill="#F0C419"/>
<path d="M46.2812 59.227H83.5071C85.0301 59.227 86.2647 60.4824 86.2647 62.0312V81.6607C86.2647 83.2095 85.0301 84.465 83.5071 84.465H46.2812C44.7582 84.465 43.5237 83.2095 43.5237 81.6607V62.0312C43.5237 60.4824 44.7582 59.227 46.2812 59.227Z" fill="#67B9CC"/>
<path d="M60.0683 97.0842H69.7194C71.2424 97.0842 72.477 98.3397 72.477 99.8885V104.095H57.3108V99.8885C57.3108 98.3397 58.5454 97.0842 60.0683 97.0842Z" fill="#802F34"/>
<path d="M8.66675 26.4409V32.6842V35.1807V63.8984H13.0002V35.1807V32.6842V26.4409H8.66675Z" fill="#BDC3C7"/>
<path d="M21.6668 20.9325V28.6443C21.6632 29.8597 20.6953 30.8441 19.5001 30.8477H2.16672C0.971575 30.8441 0.0035547 29.8597 0 28.6443V20.9325H21.6668Z" fill="#95A5A5"/>
<path d="M21.6669 2.20343V23.1355H0.000244141V2.20343C0.00379883 0.988037 0.971689 0.00361493 2.16695 0H19.5003C20.6954 0.00361493 21.6634 0.988037 21.6669 2.20343Z" fill="#4482C3"/>
<path d="M12.4581 3.30511H7.58305C7.29563 3.30499 7.02001 3.42092 6.81689 3.62762C6.61376 3.83431 6.49963 4.1146 6.49976 4.40676V18.7287C6.49976 19.3372 6.98472 19.8304 7.58305 19.8304C8.18138 19.8304 8.66634 19.3372 8.66634 18.7287V13.2202H12.4581C15.1505 13.2202 17.3331 11.0007 17.3331 8.2626C17.3331 5.52455 15.1505 3.30511 12.4581 3.30511ZM12.4581 11.0169H8.66634V5.50841H12.4581C13.9538 5.50841 15.1664 6.74149 15.1664 8.2626C15.1664 9.78371 13.9538 11.0169 12.4581 11.0169Z" fill="white"/>
<path d="M4.33305 28.6439C4.04563 28.6441 3.77001 28.5281 3.56689 28.3214C3.36376 28.1147 3.24963 27.8345 3.24976 27.5423V26.4406C3.24976 25.8322 3.73485 25.339 4.33305 25.339C4.93138 25.339 5.41634 25.8323 5.41634 26.4406V27.5423C5.41647 27.8346 5.30247 28.1149 5.09921 28.3214C4.89596 28.528 4.62047 28.6442 4.33305 28.6439Z" fill="#E6E7E8"/>
<path d="M8.66654 28.6439C8.37912 28.6441 8.10351 28.5281 7.90038 28.3214C7.69726 28.1147 7.58313 27.8345 7.58325 27.5423V26.4406C7.58325 25.8322 8.06834 25.339 8.66654 25.339C9.26488 25.339 9.74984 25.8323 9.74984 26.4406V27.5423C9.74996 27.8346 9.63596 28.1149 9.43271 28.3214C9.22946 28.528 8.95397 28.6442 8.66654 28.6439Z" fill="#E6E7E8"/>
<path d="M12.9998 28.6439C12.7124 28.6441 12.4368 28.5281 12.2336 28.3214C12.0305 28.1147 11.9164 27.8345 11.9165 27.5423V26.4406C11.9165 25.8322 12.4015 25.339 12.9998 25.339C13.5981 25.339 14.0831 25.8323 14.0831 26.4406V27.5423C14.0832 27.8346 13.9692 28.1149 13.766 28.3214C13.5627 28.5281 13.2871 28.6442 12.9998 28.6439Z" fill="#E6E7E8"/>
<path d="M17.3331 28.6439C17.0456 28.6441 16.77 28.5281 16.5669 28.3214C16.3636 28.1147 16.2496 27.8345 16.2498 27.5423V26.4406C16.2498 25.8322 16.7347 25.339 17.3331 25.339C17.9314 25.339 18.4163 25.8323 18.4163 26.4406V27.5423C18.4165 27.8346 18.3025 28.1149 18.0992 28.3214C17.8961 28.5281 17.6205 28.6442 17.3331 28.6439Z" fill="#E6E7E8"/>
<path d="M4.33346 38.5593H17.3335C18.5302 38.5593 19.5002 39.5458 19.5002 40.7627V44.0678C19.5002 45.2848 18.5302 46.2712 17.3335 46.2712H4.33346C3.1368 46.2712 2.16675 45.2848 2.16675 44.0678V40.7627C2.16675 39.5458 3.1368 38.5593 4.33346 38.5593Z" fill="#95A5A5"/>
</svg>
