<svg width="15" height="20" viewBox="0 0 15 20" fill="none" xmlns="http://www.w3.org/2000/svg">
<path d="M7.5 0V4.29365C9.27271 4.29365 10.7151 5.76928 10.7151 7.5838C10.7151 9.3979 9.27271 10.8739 7.5 10.8739V20L13.3848 12.4285C14.4414 11.0611 15 9.41764 15 7.6751C15 3.44314 11.6354 0 7.5 0Z" fill="#CD2A00"/>
<path d="M10.7151 7.58367C10.7151 5.76915 9.27271 4.29352 7.5 4.29352V10.8738C9.27271 10.8738 10.7151 9.39777 10.7151 7.58367Z" fill="#D8D7DA"/>
<path d="M4.28489 7.5838C4.28489 5.76928 5.72726 4.29365 7.49997 4.29365V0C3.36458 0 0 3.44314 0 7.6751C0 9.41764 0.55862 11.0611 1.61678 12.4302L7.49997 20V10.8739C5.72726 10.8739 4.28489 9.3979 4.28489 7.5838Z" fill="#FF3501"/>
<path d="M4.28467 7.58367C4.28467 9.39777 5.72703 10.8738 7.49975 10.8738V4.29352C5.72703 4.29352 4.28467 5.76915 4.28467 7.58367Z" fill="white"/>
</svg>
