<svg width="96" height="27" viewBox="0 0 96 27" fill="none" xmlns="http://www.w3.org/2000/svg">
<path d="M17 4H7C5.9 4 5.01 4.9 5.01 6L5 22L12 19L19 22V6C19 4.9 18.1 4 17 4ZM17 19L12 16.82L7 19V6H17V19Z" fill="#3D2CE8"/>
<path d="M17 19L12 16.82L7 19V6H17V19Z" fill="#3D2CE8"/>
<path d="M37.1758 11H35.9507V6.72803H31.2915V11H30.0728V1.75781H31.2915V5.73145H35.9507V1.75781H37.1758V11ZM43.3965 11C43.3288 10.8646 43.2738 10.6234 43.2314 10.2764C42.6855 10.8434 42.0339 11.127 41.2764 11.127C40.5993 11.127 40.0428 10.9365 39.6069 10.5557C39.1753 10.1706 38.9595 9.68392 38.9595 9.0957C38.9595 8.38053 39.2303 7.82617 39.772 7.43262C40.3179 7.03483 41.0838 6.83594 42.0698 6.83594H43.2124V6.29639C43.2124 5.8859 43.0897 5.56006 42.8442 5.31885C42.5988 5.0734 42.237 4.95068 41.7588 4.95068C41.3398 4.95068 40.9886 5.05648 40.7051 5.26807C40.4215 5.47965 40.2798 5.73568 40.2798 6.03613H39.0991C39.0991 5.69336 39.2197 5.36328 39.4609 5.0459C39.7064 4.72428 40.0365 4.47038 40.4512 4.28418C40.8701 4.09798 41.3293 4.00488 41.8286 4.00488C42.62 4.00488 43.2399 4.20378 43.6885 4.60156C44.137 4.99512 44.3698 5.5389 44.3867 6.23291V9.39404C44.3867 10.0246 44.4671 10.526 44.6279 10.8984V11H43.3965ZM41.4478 10.105C41.8159 10.105 42.165 10.0098 42.4951 9.81934C42.8252 9.62891 43.0643 9.38135 43.2124 9.07666V7.66748H42.292C40.8532 7.66748 40.1338 8.08854 40.1338 8.93066C40.1338 9.29883 40.2565 9.58659 40.502 9.79395C40.7474 10.0013 41.0627 10.105 41.4478 10.105ZM46.1704 10.0415L46.5767 9.54004C47.0337 8.94759 47.2939 8.05892 47.3574 6.87402L47.4653 4.13184H51.8896V10.0415H52.772V13.0186H51.5977V11H46.8052V13.0186H45.6309L45.6372 10.0415H46.1704ZM47.5605 10.0415H50.7153V5.21729H48.6016L48.5317 6.85498C48.4598 8.22184 48.1361 9.28402 47.5605 10.0415ZM56.9233 11.127C55.9924 11.127 55.2349 10.8223 54.6509 10.2129C54.0669 9.59928 53.7749 8.78044 53.7749 7.75635V7.54053C53.7749 6.85921 53.904 6.25195 54.1621 5.71875C54.4245 5.18132 54.7884 4.76237 55.2539 4.46191C55.7236 4.15723 56.2314 4.00488 56.7773 4.00488C57.6702 4.00488 58.3643 4.29899 58.8594 4.88721C59.3545 5.47542 59.6021 6.31755 59.6021 7.41357V7.90234H54.9492C54.9661 8.57943 55.1629 9.12744 55.5396 9.54639C55.9204 9.9611 56.4028 10.1685 56.9868 10.1685C57.4015 10.1685 57.7528 10.0838 58.0405 9.91455C58.3283 9.74528 58.5801 9.521 58.7959 9.2417L59.5132 9.80029C58.9377 10.6847 58.0744 11.127 56.9233 11.127ZM56.7773 4.96973C56.3034 4.96973 55.9056 5.14323 55.584 5.49023C55.2624 5.83301 55.0635 6.31543 54.9873 6.9375H58.4277V6.84863C58.3939 6.25195 58.2331 5.79069 57.9453 5.46484C57.6576 5.13477 57.2682 4.96973 56.7773 4.96973ZM66.4448 8.0166H65.6196V11H64.4453V8.0166H63.6201L61.6968 11H60.2114L62.668 7.44531L60.4463 4.13184H61.8682L63.6392 6.97559H64.4453V4.13184H65.6196V6.97559H66.4194L68.2031 4.13184H69.625L67.397 7.45166L69.8535 11H68.3682L66.4448 8.0166ZM76.5312 11H75.3569V8.06738H72.2021V11H71.0215V4.13184H72.2021V7.10889H75.3569V4.13184H76.5312V11ZM79.7051 6.49951H81.4888C82.2674 6.50798 82.8831 6.7111 83.3359 7.10889C83.7887 7.50667 84.0151 8.04622 84.0151 8.72754C84.0151 9.41309 83.7824 9.96322 83.3169 10.3779C82.8514 10.7926 82.2251 11 81.438 11H78.5308V4.13184H79.7051V6.49951ZM86.4653 11H85.2847V4.13184H86.4653V11ZM79.7051 7.45801V10.0415H81.4507C81.8908 10.0415 82.2314 9.92936 82.4727 9.70508C82.7139 9.47656 82.8345 9.16553 82.8345 8.77197C82.8345 8.39111 82.716 8.08008 82.479 7.83887C82.2463 7.59342 81.9183 7.46647 81.4951 7.45801H79.7051ZM92.959 4.13184H94.1333V11H92.959V5.9917L89.7915 11H88.6172V4.13184H89.7915V9.14648L92.959 4.13184ZM93.2764 1.63086C93.2764 2.1429 93.1007 2.5555 92.7495 2.86865C92.4025 3.17757 91.9455 3.33203 91.3784 3.33203C90.8114 3.33203 90.3522 3.17546 90.001 2.8623C89.6497 2.54915 89.4741 2.13867 89.4741 1.63086H90.4326C90.4326 1.92708 90.513 2.15983 90.6738 2.3291C90.8346 2.49414 91.0695 2.57666 91.3784 2.57666C91.6746 2.57666 91.9053 2.49414 92.0703 2.3291C92.2396 2.16406 92.3242 1.93132 92.3242 1.63086H93.2764ZM35.5063 24H34.332V18.103H31.1709V24H29.9902V17.1318H35.5063V24ZM43.1934 20.6421C43.1934 21.6873 42.9543 22.5295 42.4761 23.1685C41.9979 23.8075 41.3504 24.127 40.5337 24.127C39.7 24.127 39.0441 23.8625 38.5659 23.3335V26.6406H37.3916V17.1318H38.4644L38.5215 17.8936C38.9997 17.3011 39.6641 17.0049 40.5146 17.0049C41.3398 17.0049 41.9915 17.3159 42.4697 17.938C42.9521 18.5601 43.1934 19.4255 43.1934 20.5342V20.6421ZM42.019 20.5088C42.019 19.7344 41.854 19.1229 41.5239 18.6743C41.1938 18.2257 40.741 18.0015 40.1655 18.0015C39.4546 18.0015 38.9214 18.3167 38.5659 18.9473V22.229C38.9172 22.8553 39.4546 23.1685 40.1782 23.1685C40.741 23.1685 41.1875 22.9463 41.5176 22.502C41.8519 22.0534 42.019 21.389 42.019 20.5088ZM44.3804 20.5024C44.3804 19.8296 44.5116 19.2244 44.7739 18.687C45.0405 18.1496 45.4087 17.7349 45.8784 17.4429C46.3524 17.1509 46.8919 17.0049 47.4971 17.0049C48.4323 17.0049 49.1877 17.3286 49.7632 17.9761C50.3429 18.6235 50.6328 19.4847 50.6328 20.5596V20.6421C50.6328 21.3107 50.5037 21.9116 50.2456 22.4448C49.9917 22.9738 49.6257 23.3864 49.1475 23.6826C48.6735 23.9788 48.1276 24.127 47.5098 24.127C46.5788 24.127 45.8234 23.8032 45.2437 23.1558C44.6681 22.5083 44.3804 21.6514 44.3804 20.585V20.5024ZM45.561 20.6421C45.561 21.4038 45.7367 22.0153 46.0879 22.4766C46.4434 22.9378 46.9173 23.1685 47.5098 23.1685C48.1064 23.1685 48.5804 22.9357 48.9316 22.4702C49.2829 22.0005 49.4585 21.3446 49.4585 20.5024C49.4585 19.7492 49.2786 19.1398 48.9189 18.6743C48.5635 18.2046 48.0895 17.9697 47.4971 17.9697C46.9173 17.9697 46.4497 18.2004 46.0942 18.6616C45.7388 19.1229 45.561 19.783 45.561 20.6421ZM51.5913 23.0415L51.9976 22.54C52.4546 21.9476 52.7148 21.0589 52.7783 19.874L52.8862 17.1318H57.3105V23.0415H58.1929V26.0186H57.0186V24H52.2261V26.0186H51.0518L51.0581 23.0415H51.5913ZM52.9814 23.0415H56.1362V18.2173H54.0225L53.9526 19.855C53.8807 21.2218 53.557 22.284 52.9814 23.0415ZM63.7344 24C63.6667 23.8646 63.6117 23.6234 63.5693 23.2764C63.0234 23.8434 62.3717 24.127 61.6143 24.127C60.9372 24.127 60.3807 23.9365 59.9448 23.5557C59.5132 23.1706 59.2974 22.6839 59.2974 22.0957C59.2974 21.3805 59.5682 20.8262 60.1099 20.4326C60.6558 20.0348 61.4217 19.8359 62.4077 19.8359H63.5503V19.2964C63.5503 18.8859 63.4276 18.5601 63.1821 18.3188C62.9367 18.0734 62.5749 17.9507 62.0967 17.9507C61.6777 17.9507 61.3265 18.0565 61.043 18.2681C60.7594 18.4797 60.6177 18.7357 60.6177 19.0361H59.437C59.437 18.6934 59.5576 18.3633 59.7988 18.0459C60.0443 17.7243 60.3743 17.4704 60.7891 17.2842C61.208 17.098 61.6672 17.0049 62.1665 17.0049C62.9578 17.0049 63.5778 17.2038 64.0264 17.6016C64.4749 17.9951 64.7077 18.5389 64.7246 19.2329V22.394C64.7246 23.0246 64.805 23.526 64.9658 23.8984V24H63.7344ZM61.7856 23.105C62.1538 23.105 62.5029 23.0098 62.833 22.8193C63.1631 22.6289 63.4022 22.3813 63.5503 22.0767V20.6675H62.6299C61.1911 20.6675 60.4717 21.0885 60.4717 21.9307C60.4717 22.2988 60.5944 22.5866 60.8398 22.7939C61.0853 23.0013 61.4006 23.105 61.7856 23.105ZM66.6733 24V17.1318H69.3521C70.2661 17.1318 70.9665 17.2926 71.4531 17.6143C71.944 17.9316 72.1895 18.3993 72.1895 19.0171C72.1895 19.3345 72.0942 19.6222 71.9038 19.8804C71.7134 20.1343 71.432 20.3289 71.0596 20.4644C71.4743 20.5617 71.8065 20.7521 72.0562 21.0356C72.3101 21.3192 72.437 21.6577 72.437 22.0513C72.437 22.6818 72.2043 23.1642 71.7388 23.4985C71.2775 23.8328 70.6237 24 69.7773 24H66.6733ZM67.8477 20.9849V23.0542H69.79C70.2809 23.0542 70.647 22.9632 70.8882 22.7812C71.1336 22.5993 71.2563 22.3433 71.2563 22.0132C71.2563 21.3276 70.7528 20.9849 69.7456 20.9849H67.8477ZM67.8477 20.0454H69.3647C70.465 20.0454 71.0151 19.7238 71.0151 19.0806C71.0151 18.4373 70.4946 18.1051 69.4536 18.084H67.8477V20.0454ZM76.8423 24.127C75.9113 24.127 75.1538 23.8223 74.5698 23.2129C73.9858 22.5993 73.6938 21.7804 73.6938 20.7563V20.5405C73.6938 19.8592 73.8229 19.252 74.0811 18.7188C74.3434 18.1813 74.7074 17.7624 75.1729 17.4619C75.6426 17.1572 76.1504 17.0049 76.6963 17.0049C77.5892 17.0049 78.2832 17.299 78.7783 17.8872C79.2734 18.4754 79.521 19.3175 79.521 20.4136V20.9023H74.8682C74.8851 21.5794 75.0819 22.1274 75.4585 22.5464C75.8394 22.9611 76.3218 23.1685 76.9058 23.1685C77.3205 23.1685 77.6717 23.0838 77.9595 22.9146C78.2472 22.7453 78.499 22.521 78.7148 22.2417L79.4321 22.8003C78.8566 23.6847 77.9933 24.127 76.8423 24.127ZM76.6963 17.9697C76.2223 17.9697 75.8245 18.1432 75.5029 18.4902C75.1813 18.833 74.9824 19.3154 74.9062 19.9375H78.3467V19.8486C78.3128 19.252 78.152 18.7907 77.8643 18.4648C77.5765 18.1348 77.1872 17.9697 76.6963 17.9697ZM80.9873 17.1318H82.168V23.0415H85.3291V17.1318H86.5034V23.0415H87.3223L87.208 26.0376H86.1543V24H80.9873V17.1318Z" fill="#3D2CE8"/>
</svg>
