<svg width="77" height="27" viewBox="0 0 77 27" fill="none" xmlns="http://www.w3.org/2000/svg">
<path d="M17 4H7C5.9 4 5.01 4.9 5.01 6L5 22L12 19L19 22V6C19 4.9 18.1 4 17 4ZM17 19L12 16.82L7 19V6H17V19Z" fill="#01BC9D"/>
<path d="M17 19L12 16.82L7 19V6H17V19Z" fill="#01BC9D"/>
<path d="M37.0615 1.75781V11H35.8428V2.76074H32.5293L32.3643 6.42334C32.3008 7.65055 32.1738 8.57308 31.9834 9.19092C31.7972 9.80876 31.5221 10.2637 31.1582 10.5557C30.7943 10.8434 30.3076 10.9915 29.6982 11H29.2983V10.0034L29.5522 9.99072C29.9458 9.9611 30.2484 9.83415 30.46 9.60986C30.6715 9.38135 30.8324 9.01953 30.9424 8.52441C31.0524 8.0293 31.1307 7.26758 31.1772 6.23926L31.3677 1.75781H37.0615ZM41.3398 9.27979L42.9395 4.13184H44.1963L41.4351 12.0601C41.0076 13.2026 40.3285 13.7739 39.3975 13.7739L39.1753 13.7549L38.7373 13.6724V12.7202L39.0547 12.7456C39.4525 12.7456 39.7614 12.6652 39.9814 12.5044C40.2057 12.3436 40.3898 12.0495 40.5337 11.6221L40.7939 10.9238L38.3438 4.13184H39.626L41.3398 9.27979ZM50.436 11H49.2554V8.51172C48.7391 8.64714 48.2101 8.71484 47.6685 8.71484C46.8094 8.71484 46.1535 8.49479 45.7007 8.05469C45.2521 7.61458 45.0236 6.98828 45.0151 6.17578V4.12549H46.1895V6.21387C46.2106 7.23796 46.7036 7.75 47.6685 7.75C48.2101 7.75 48.7391 7.68229 49.2554 7.54688V4.13184H50.436V11ZM53.6035 4.13184V10.0415H56.1172V4.13184H57.2915V10.0415H59.7988V4.13184H60.9795V11H52.4229V4.13184H53.6035ZM67.0732 11C67.0055 10.8646 66.9505 10.6234 66.9082 10.2764C66.3623 10.8434 65.7106 11.127 64.9531 11.127C64.276 11.127 63.7196 10.9365 63.2837 10.5557C62.8521 10.1706 62.6362 9.68392 62.6362 9.0957C62.6362 8.38053 62.9071 7.82617 63.4487 7.43262C63.9946 7.03483 64.7606 6.83594 65.7466 6.83594H66.8892V6.29639C66.8892 5.8859 66.7664 5.56006 66.521 5.31885C66.2756 5.0734 65.9137 4.95068 65.4355 4.95068C65.0166 4.95068 64.6654 5.05648 64.3818 5.26807C64.0983 5.47965 63.9565 5.73568 63.9565 6.03613H62.7759C62.7759 5.69336 62.8965 5.36328 63.1377 5.0459C63.3831 4.72428 63.7132 4.47038 64.1279 4.28418C64.5469 4.09798 65.006 4.00488 65.5054 4.00488C66.2967 4.00488 66.9167 4.20378 67.3652 4.60156C67.8138 4.99512 68.0465 5.5389 68.0635 6.23291V9.39404C68.0635 10.0246 68.1439 10.526 68.3047 10.8984V11H67.0732ZM65.1245 10.105C65.4927 10.105 65.8418 10.0098 66.1719 9.81934C66.502 9.62891 66.741 9.38135 66.8892 9.07666V7.66748H65.9688C64.5299 7.66748 63.8105 8.08854 63.8105 8.93066C63.8105 9.29883 63.9333 9.58659 64.1787 9.79395C64.4242 10.0013 64.7394 10.105 65.1245 10.105ZM75.1538 4.13184V11H73.9731V8.32764H72.2021L70.5835 11H69.314L71.0405 8.1499C70.6004 7.9891 70.2619 7.74154 70.0249 7.40723C69.7922 7.06868 69.6758 6.67513 69.6758 6.22656C69.6758 5.60026 69.9106 5.09668 70.3804 4.71582C70.8501 4.33073 71.4785 4.13607 72.2656 4.13184H75.1538ZM70.8564 6.23926C70.8564 6.57357 70.9707 6.8444 71.1992 7.05176C71.4277 7.25488 71.7303 7.35856 72.1069 7.36279H73.9731V5.08398H72.2847C71.8488 5.08398 71.5018 5.19189 71.2437 5.40771C70.9855 5.6193 70.8564 5.89648 70.8564 6.23926ZM29.9902 17.1318H31.1709V23.0415H34.332V17.1318H35.5063V23.0415H36.3252L36.2109 26.0376H35.1572V24H29.9902V17.1318ZM40.4448 24.127C39.5138 24.127 38.7563 23.8223 38.1724 23.2129C37.5884 22.5993 37.2964 21.7804 37.2964 20.7563V20.5405C37.2964 19.8592 37.4255 19.252 37.6836 18.7188C37.946 18.1813 38.3099 17.7624 38.7754 17.4619C39.2451 17.1572 39.7529 17.0049 40.2988 17.0049C41.1917 17.0049 41.8857 17.299 42.3809 17.8872C42.876 18.4754 43.1235 19.3175 43.1235 20.4136V20.9023H38.4707C38.4876 21.5794 38.6844 22.1274 39.061 22.5464C39.4419 22.9611 39.9243 23.1685 40.5083 23.1685C40.923 23.1685 41.2743 23.0838 41.562 22.9146C41.8498 22.7453 42.1016 22.521 42.3174 22.2417L43.0347 22.8003C42.4591 23.6847 41.5959 24.127 40.4448 24.127ZM40.2988 17.9697C39.8249 17.9697 39.4271 18.1432 39.1055 18.4902C38.7839 18.833 38.585 19.3154 38.5088 19.9375H41.9492V19.8486C41.9154 19.252 41.7546 18.7907 41.4668 18.4648C41.179 18.1348 40.7897 17.9697 40.2988 17.9697ZM50.0996 24H48.9253V21.0674H45.7705V24H44.5898V17.1318H45.7705V20.1089H48.9253V17.1318H50.0996V24ZM56.2314 24C56.1637 23.8646 56.1087 23.6234 56.0664 23.2764C55.5205 23.8434 54.8688 24.127 54.1113 24.127C53.4342 24.127 52.8778 23.9365 52.4419 23.5557C52.0103 23.1706 51.7944 22.6839 51.7944 22.0957C51.7944 21.3805 52.0653 20.8262 52.6069 20.4326C53.1528 20.0348 53.9188 19.8359 54.9048 19.8359H56.0474V19.2964C56.0474 18.8859 55.9246 18.5601 55.6792 18.3188C55.4338 18.0734 55.0719 17.9507 54.5938 17.9507C54.1748 17.9507 53.8236 18.0565 53.54 18.2681C53.2565 18.4797 53.1147 18.7357 53.1147 19.0361H51.9341C51.9341 18.6934 52.0547 18.3633 52.2959 18.0459C52.5413 17.7243 52.8714 17.4704 53.2861 17.2842C53.7051 17.098 54.1642 17.0049 54.6636 17.0049C55.4549 17.0049 56.0749 17.2038 56.5234 17.6016C56.972 17.9951 57.2048 18.5389 57.2217 19.2329V22.394C57.2217 23.0246 57.3021 23.526 57.4629 23.8984V24H56.2314ZM54.2827 23.105C54.6509 23.105 55 23.0098 55.3301 22.8193C55.6602 22.6289 55.8993 22.3813 56.0474 22.0767V20.6675H55.127C53.6882 20.6675 52.9688 21.0885 52.9688 21.9307C52.9688 22.2988 53.0915 22.5866 53.3369 22.7939C53.5824 23.0013 53.8976 23.105 54.2827 23.105Z" fill="#01BC9D"/>
</svg>
