<svg width="16" height="21" viewBox="0 0 16 21" fill="none" xmlns="http://www.w3.org/2000/svg">
<path d="M8 0V4.5083C9.89087 4.5083 11.4294 6.0577 11.4294 7.96293C11.4294 9.86773 9.89087 11.4176 8 11.4176V20.9999L14.277 13.0499C15.404 11.6141 15.9999 9.88846 15.9999 8.0588C15.9999 3.61528 12.411 0 8 0Z" fill="#CD2A00"/>
<path d="M11.4294 7.96281C11.4294 6.05758 9.89087 4.50818 8 4.50818V11.4174C9.89087 11.4174 11.4294 9.86761 11.4294 7.96281Z" fill="#D8D7DA"/>
<path d="M4.5705 7.96306C4.5705 6.05783 6.10901 4.50842 7.99988 4.50842V0.00012207C3.58884 0.00012207 0 3.6154 0 8.05892C0 9.88859 0.595854 11.6142 1.72455 13.0517L7.99988 21V11.4177C6.10901 11.4177 4.5705 9.86786 4.5705 7.96306Z" fill="#FF3501"/>
<path d="M4.57031 7.96281C4.57031 9.86761 6.10882 11.4174 7.99969 11.4174V4.50818C6.10882 4.50818 4.57031 6.05758 4.57031 7.96281Z" fill="white"/>
</svg>
