<svg width="97" height="124" viewBox="0 0 97 124" fill="none" xmlns="http://www.w3.org/2000/svg">
<path d="M27.5639 36.7H27.4831C27.4831 31.3428 23.1402 27 17.7831 27C12.4259 27 8.08306 31.3428 8.08306 36.7C4.51168 36.7 1.61646 39.5952 1.61646 43.1666C1.61646 46.738 4.51168 49.6332 8.08306 49.6332H18.7531L27.5639 36.7Z" fill="#BDC3C7"/>
<path d="M32.3331 90.0502H25.8665V120.767H32.3331V90.0502Z" fill="#804537"/>
<path d="M46.3084 76.48C48.8341 73.9909 50.2516 70.5897 50.2408 67.0435C50.3424 59.9356 44.6641 54.0902 37.5562 53.9858L37.5062 53.9885C38.9081 52.099 39.6667 49.8097 39.6703 47.4569C39.7548 41.5336 35.023 36.6626 29.0998 36.5754C23.1765 36.6626 18.4447 41.5336 18.5292 47.4569C18.5328 49.8095 19.2914 52.099 20.6933 53.9885L20.6433 53.9858C13.5354 54.0902 7.85714 59.9356 7.95869 67.0435C7.94789 70.5897 9.36538 73.9907 11.8914 76.4798C5.70173 78.5982 1.56256 84.4406 1.61655 90.9826C1.49814 99.2751 8.12275 106.095 16.4153 106.217C21.6645 106.187 26.4995 103.36 29.0999 98.7996C31.7004 103.36 36.5352 106.187 41.7846 106.217C50.0771 106.095 56.7018 99.2751 56.5833 90.9826C56.637 84.4406 52.498 78.5984 46.3084 76.48Z" fill="#71C285"/>
<path d="M63.0501 122.383C62.6214 122.383 62.2101 122.213 61.9068 121.91C61.6037 121.607 61.4333 121.195 61.4333 120.766V98.1331C61.4333 97.2402 62.1571 96.5165 63.05 96.5165C63.9429 96.5165 64.6666 97.2404 64.6666 98.1331V120.767C64.6668 121.195 64.4964 121.607 64.1931 121.91C63.8902 122.213 63.4789 122.383 63.0501 122.383Z" fill="#95A5A5"/>
<path d="M92.15 122.383C91.7213 122.383 91.31 122.213 91.0066 121.91C90.7035 121.607 90.5332 121.195 90.5332 120.766V98.1331C90.5332 97.2402 91.2569 96.5165 92.1498 96.5165C93.0427 96.5165 93.7664 97.2404 93.7664 98.1331V120.767C93.7666 121.195 93.5963 121.607 93.293 121.91C92.99 122.213 92.5787 122.383 92.15 122.383Z" fill="#95A5A5"/>
<path d="M41.5596 85.6734C41.2565 85.3701 40.8454 85.1998 40.4167 85.1998C39.9879 85.1998 39.5768 85.3701 39.2737 85.6734L30.7169 94.2303V77.7857L38.3264 70.1761C38.9509 69.5437 38.9478 68.5258 38.3192 67.8972C37.6908 67.2688 36.6729 67.2656 36.0403 67.89L30.7167 73.2136V65.7998C30.7167 64.9069 29.9928 64.1832 29.1001 64.1832C28.2074 64.1832 27.4835 64.9071 27.4835 65.7998V73.2136L22.1598 67.89C21.5274 67.2656 20.5095 67.2688 19.8809 67.8972C19.2525 68.5256 19.2493 69.5437 19.8737 70.1761L27.4833 77.7859V94.2304L18.9264 85.6732C18.294 85.0488 17.2761 85.052 16.6475 85.6804C16.0191 86.3088 16.0159 87.327 16.6403 87.9594L27.956 99.275C28.5887 99.9048 29.6114 99.9048 30.2442 99.275L41.5596 87.9594C41.863 87.6562 42.0333 87.2451 42.0333 86.8164C42.0333 86.3877 41.863 85.9765 41.5596 85.6734Z" fill="#805333"/>
<path d="M95.3831 101.366H59.8163C58.9234 101.366 58.1997 100.643 58.1997 99.7498C58.1997 98.8569 58.9236 98.1332 59.8163 98.1332H95.3829C96.2758 98.1332 96.9995 98.8571 96.9995 99.7498C96.9995 100.643 96.276 101.366 95.3831 101.366Z" fill="#804537"/>
<path d="M95.3831 109.45H59.8163C58.9234 109.45 58.1997 108.726 58.1997 107.833C58.1997 106.94 58.9236 106.217 59.8163 106.217H95.3829C96.2758 106.217 96.9995 106.94 96.9995 107.833C96.9995 108.726 96.276 109.45 95.3831 109.45Z" fill="#804537"/>
<path d="M95.3831 114.3H59.8163C58.9234 114.3 58.1997 113.576 58.1997 112.683C58.1997 111.79 58.9236 111.066 59.8163 111.066H95.3829C96.2758 111.066 96.9995 111.79 96.9995 112.683C96.9995 113.576 96.276 114.3 95.3831 114.3Z" fill="#804537"/>
<path d="M59.7873 4.5H59.7497C59.7497 2.01472 57.735 0 55.2497 0C52.7644 0 50.7497 2.01472 50.7497 4.5C49.0929 4.5 47.7498 5.84314 47.7498 7.49997C47.7498 9.1568 49.0929 10.4999 50.7497 10.4999H55.6997L59.7873 4.5Z" fill="#BDC3C7"/>
<path d="M61.9997 29.2501H58.9998V43.5001H61.9997V29.2501Z" fill="#804537"/>
<path d="M68.4833 22.9546C69.6551 21.7999 70.3127 20.222 70.3076 18.5769C70.3548 15.2794 67.7205 12.5676 64.423 12.5192L64.3998 12.5204C65.0502 11.6439 65.4021 10.5818 65.4038 9.49029C65.443 6.74239 63.2478 4.48263 60.4999 4.4422C57.752 4.48263 55.5569 6.74239 55.5961 9.49029C55.5977 10.5817 55.9497 11.6439 56.6001 12.5204L56.5768 12.5192C53.2794 12.5676 50.6451 15.2794 50.6922 18.5769C50.6872 20.222 51.3448 21.7998 52.5167 22.9545C49.6452 23.9373 47.7249 26.6477 47.75 29.6826C47.6951 33.5297 50.7683 36.6934 54.6154 36.7499C57.0506 36.736 59.2936 35.4246 60.5 33.3091C61.7064 35.4245 63.9494 36.736 66.3846 36.7499C70.2317 36.6933 73.305 33.5297 73.2501 29.6826C73.2749 26.6477 71.3548 23.9374 68.4833 22.9546Z" fill="#71C285"/>
<path d="M76.2501 44.2499C76.0512 44.25 75.8604 44.171 75.7196 44.0303C75.579 43.8896 75.5 43.6988 75.5 43.4999V32.9999C75.5 32.5857 75.8357 32.2499 76.25 32.2499C76.6642 32.2499 76.9999 32.5858 76.9999 32.9999V43.4999C77 43.6988 76.921 43.8896 76.7803 44.0304C76.6398 44.171 76.449 44.25 76.2501 44.2499Z" fill="#95A5A5"/>
<path d="M89.7501 44.2499C89.5512 44.25 89.3604 44.171 89.2196 44.0303C89.079 43.8896 89 43.6988 89 43.4999V32.9999C89 32.5857 89.3357 32.2499 89.75 32.2499C90.1642 32.2499 90.4999 32.5858 90.4999 32.9999V43.4999C90.5 43.6988 90.421 43.8896 90.2803 44.0304C90.1398 44.171 89.949 44.25 89.7501 44.2499Z" fill="#95A5A5"/>
<path d="M79.2502 17.2501C77.5934 17.2501 76.2502 15.907 76.2502 14.2502C76.2502 12.5933 77.5934 11.2502 79.2502 11.2502C79.2502 8.7649 81.2649 6.75018 83.7502 6.75018C86.2355 6.75018 88.2502 8.7649 88.2502 11.2502C89.907 11.2502 91.2502 12.5933 91.2502 14.2502C91.2502 15.907 89.907 17.2501 88.2502 17.2501H79.2502Z" fill="#BDC3C7"/>
<path d="M66.2802 27.2196C66.1396 27.0789 65.9489 26.9999 65.75 26.9999C65.5511 26.9999 65.3604 27.0789 65.2197 27.2196L61.2501 31.1893V23.5604L64.7803 20.0302C65.07 19.7368 65.0686 19.2646 64.7769 18.9729C64.4854 18.6814 64.0132 18.6799 63.7197 18.9696L61.25 21.4393V17.9999C61.25 17.5857 60.9142 17.2499 60.5 17.2499C60.0859 17.2499 59.75 17.5858 59.75 17.9999V21.4393L57.2803 18.9696C56.9869 18.6799 56.5147 18.6814 56.2231 18.9729C55.9315 19.2645 55.9301 19.7368 56.2197 20.0302L59.75 23.5605V31.1894L55.7803 27.2196C55.4869 26.9299 55.0147 26.9314 54.723 27.2229C54.4315 27.5144 54.43 27.9867 54.7197 28.2801L59.9692 33.5297C60.2628 33.8218 60.7372 33.8218 61.0308 33.5297L66.2802 28.2801C66.4209 28.1395 66.5 27.9488 66.5 27.7499C66.5 27.551 66.4209 27.3603 66.2802 27.2196Z" fill="#805333"/>
<path d="M91.25 34.4999H74.75C74.3357 34.4999 74 34.1641 74 33.7499C74 33.3357 74.3358 32.9999 74.75 32.9999H91.2499C91.6642 32.9999 91.9999 33.3358 91.9999 33.7499C91.9999 34.164 91.6643 34.4999 91.25 34.4999Z" fill="#804537"/>
<path d="M91.25 38.2499H74.75C74.3357 38.2499 74 37.9141 74 37.4999C74 37.0857 74.3358 36.7499 74.75 36.7499H91.2499C91.6642 36.7499 91.9999 37.0857 91.9999 37.4999C91.9999 37.9141 91.6643 38.2499 91.25 38.2499Z" fill="#804537"/>
<path d="M91.25 40.4998H74.75C74.3357 40.4998 74 40.1641 74 39.7498C74 39.3356 74.3358 38.9999 74.75 38.9999H91.2499C91.6642 38.9999 91.9999 39.3356 91.9999 39.7498C91.9999 40.1641 91.6643 40.4998 91.25 40.4998Z" fill="#804537"/>
</svg>
