<svg width="66" height="24" viewBox="0 0 66 24" fill="none" xmlns="http://www.w3.org/2000/svg">
<path d="M17 3H7C5.9 3 5.01 3.9 5.01 5L5 21L12 18L19 21V5C19 3.9 18.1 3 17 3ZM17 18L12 15.82L7 18V5H17V18Z" fill="#E52629"/>
<path d="M17 18L12 15.82L7 18V5H17V18Z" fill="#E52629"/>
<path d="M34.1289 16C34.0612 15.8646 34.0062 15.6234 33.9639 15.2764C33.418 15.8434 32.7663 16.127 32.0088 16.127C31.3317 16.127 30.7752 15.9365 30.3394 15.5557C29.9077 15.1706 29.6919 14.6839 29.6919 14.0957C29.6919 13.3805 29.9627 12.8262 30.5044 12.4326C31.0503 12.0348 31.8162 11.8359 32.8022 11.8359H33.9448V11.2964C33.9448 10.8859 33.8221 10.5601 33.5767 10.3188C33.3312 10.0734 32.9694 9.95068 32.4912 9.95068C32.0723 9.95068 31.721 10.0565 31.4375 10.2681C31.154 10.4797 31.0122 10.7357 31.0122 11.0361H29.8315C29.8315 10.6934 29.9521 10.3633 30.1934 10.0459C30.4388 9.72428 30.7689 9.47038 31.1836 9.28418C31.6025 9.09798 32.0617 9.00488 32.561 9.00488C33.3524 9.00488 33.9723 9.20378 34.4209 9.60156C34.8695 9.99512 35.1022 10.5389 35.1191 11.2329V14.394C35.1191 15.0246 35.1995 15.526 35.3604 15.8984V16H34.1289ZM32.1802 15.105C32.5483 15.105 32.8975 15.0098 33.2275 14.8193C33.5576 14.6289 33.7967 14.3813 33.9448 14.0767V12.6675H33.0244C31.5856 12.6675 30.8662 13.0885 30.8662 13.9307C30.8662 14.2988 30.9889 14.5866 31.2344 14.7939C31.4798 15.0013 31.7951 15.105 32.1802 15.105ZM39.0991 13.0737H38.2422V16H37.0615V9.13184H38.2422V12.0391H39.0103L41.3208 9.13184H42.7427L40.0259 12.4326L42.9712 16H41.4795L39.0991 13.0737ZM44.082 9.13184H45.2627V15.0415H48.4238V9.13184H49.5981V15.0415H50.417L50.3027 18.0376H49.249V16H44.082V9.13184ZM56.1299 9.13184H57.3042V16H56.1299V10.9917L52.9624 16H51.7881V9.13184H52.9624V14.1465L56.1299 9.13184ZM64.439 9.13184V16H63.2583V13.3276H61.4873L59.8687 16H58.5991L60.3257 13.1499C59.8856 12.9891 59.547 12.7415 59.3101 12.4072C59.0773 12.0687 58.9609 11.6751 58.9609 11.2266C58.9609 10.6003 59.1958 10.0967 59.6655 9.71582C60.1353 9.33073 60.7637 9.13607 61.5508 9.13184H64.439ZM60.1416 11.2393C60.1416 11.5736 60.2559 11.8444 60.4844 12.0518C60.7129 12.2549 61.0155 12.3586 61.3921 12.3628H63.2583V10.084H61.5698C61.134 10.084 60.7869 10.1919 60.5288 10.4077C60.2707 10.6193 60.1416 10.8965 60.1416 11.2393Z" fill="#E52629"/>
</svg>
