<svg width="116" height="107" viewBox="0 0 116 107" fill="none" xmlns="http://www.w3.org/2000/svg">
<path d="M81.9311 16.6897H4.55176V62.2069H81.9311V16.6897Z" fill="#F9EAB0"/>
<path d="M84.9655 62.2069H62.2069H56.1379H3.03448L0 78.8965L3.03448 88H56.1379H62.2069H84.9655L88 78.8965L84.9655 62.2069Z" fill="#7F5B53"/>
<path d="M25.7932 0H21.2779H21.2414V0.00151724C11.3824 0.0182069 2.79027 6.63338 0.157856 16.1389C-0.165316 17.3057 0.285305 16.6897 0.573581 16.6897H21.2414H22.7587H44.0001V0H25.7932Z" fill="#71C285"/>
<path d="M68.2759 16.6897H87.4614C87.7314 16.6897 88.0698 16.9506 87.8513 16.1723L87.8422 16.1374C85.3858 7.11434 77.4931 0.717655 68.2759 0.0652414V0H66.7222H62.2069H44V16.6897H65.2414H68.2759Z" fill="#F3D55B"/>
<path d="M25.7917 57.6127L13.6553 45.4763L15.3637 43.7679C21.1231 38.0084 30.4633 38.0084 36.2227 43.7679L37.9311 45.4763L25.7947 57.6127C25.7932 57.6142 25.7932 57.6142 25.7917 57.6127Z" fill="#BDC3C7"/>
<path d="M28.8275 57.6142H22.7585V62.1659H28.8275V57.6142Z" fill="#A5A5A4"/>
<path d="M59.1723 60.6897C61.6862 60.6897 63.7241 58.6518 63.7241 56.1379C63.7241 53.6241 61.6862 51.5862 59.1723 51.5862C56.6585 51.5862 54.6206 53.6241 54.6206 56.1379C54.6206 58.6518 56.6585 60.6897 59.1723 60.6897Z" fill="#14A085"/>
<path d="M68.2758 60.6897C70.7897 60.6897 72.8276 58.6518 72.8276 56.1379C72.8276 53.6241 70.7897 51.5862 68.2758 51.5862C65.762 51.5862 63.7241 53.6241 63.7241 56.1379C63.7241 58.6518 65.762 60.6897 68.2758 60.6897Z" fill="#4C8056"/>
<path d="M63.7241 53.1034C66.2379 53.1034 68.2758 51.0656 68.2758 48.5517C68.2758 46.0379 66.2379 44 63.7241 44C61.2102 44 59.1724 46.0379 59.1724 48.5517C59.1724 51.0656 61.2102 53.1034 63.7241 53.1034Z" fill="#71C285"/>
<path d="M43.9999 16.6897H22.7585C24.5155 7.02483 32.9332 0 42.7558 0H43.9999V16.6897Z" fill="#F3D55B"/>
<path d="M65.2414 16.6897H44V0H45.2441C55.0668 0 63.4844 7.02483 65.2414 16.6897Z" fill="#71C285"/>
<path d="M12.1379 30.3448H10.6207C4.75503 30.3448 0 25.5898 0 19.7241V16.9324C0 16.7989 0.109241 16.6897 0.242759 16.6897H22.7586V19.7241C22.7586 25.5898 18.0036 30.3448 12.1379 30.3448Z" fill="#68AD77"/>
<path d="M33.3792 30.3448C27.5136 30.3448 22.7585 25.5898 22.7585 19.7241V16.6897H43.9999V19.7241C43.9999 25.5898 39.2449 30.3448 33.3792 30.3448Z" fill="#DDC357"/>
<path d="M54.6207 30.3448C48.755 30.3448 44 25.5898 44 19.7241V16.6897H65.2414V19.7241C65.2414 25.5898 60.4863 30.3448 54.6207 30.3448Z" fill="#68AD77"/>
<path d="M77.3794 30.3448H75.8621C69.9965 30.3448 65.2415 25.5898 65.2415 19.7241V16.6897H87.7573C87.8908 16.6897 88.0001 16.7989 88.0001 16.9324V19.7241C88.0001 25.5898 83.245 30.3448 77.3794 30.3448Z" fill="#DDC357"/>
<path d="M3.03442 27.1495V62.2069H9.10339V30.2234C6.73953 29.8851 4.62753 28.7775 3.03442 27.1495Z" fill="#7F6E5D"/>
<path d="M78.8965 30.2234V62.2069H84.9654V27.1495C83.3723 28.7775 81.2603 29.8851 78.8965 30.2234Z" fill="#7F6E5D"/>
<path d="M0 78.8966L3.03448 88H31.8621L28.8276 78.8966H0Z" fill="#805333"/>
<path d="M59.1724 78.8966L56.1379 88H84.9655L88 78.8966H59.1724Z" fill="#805333"/>
<path d="M56.138 88H31.8621L28.8276 78.8966H59.1725L56.138 88Z" fill="#563621"/>
<path d="M25.7916 57.6127C25.7916 57.6127 25.7931 57.6127 25.7946 57.6127L27.3104 56.097V45.4763C27.3104 44.6373 26.6306 43.959 25.7931 43.959C24.9556 43.959 24.2759 44.6373 24.2759 45.4763V56.097L25.7916 57.6127Z" fill="#ECF0F1"/>
<path d="M36.4139 59.133H15.1725C14.335 59.133 13.6553 58.4548 13.6553 57.6157C13.6553 56.7767 14.335 56.0985 15.1725 56.0985H36.4139C37.2514 56.0985 37.9311 56.7767 37.9311 57.6157C37.9311 58.4548 37.2514 59.133 36.4139 59.133Z" fill="#D1D4D1"/>
<path d="M31.8621 62.2069H3.03448L0 78.8966H28.8276L31.8621 62.2069Z" fill="#24AE5F"/>
<path d="M88 78.8966L84.9655 62.2069H56.1379L59.1724 78.8966H88Z" fill="#71C285"/>
<path d="M56.138 62.2069H31.8621L28.8276 78.8966H59.1725L56.138 62.2069Z" fill="#4C8056"/>
<g clip-path="url(#clip0)">
<path d="M72.254 71.9788C71.9179 71.9788 71.5888 71.8092 71.3991 71.5012C70.7831 70.5029 69.6323 69.3481 68.311 69.3902C67.7491 69.3601 67.2936 68.9709 67.2776 68.418C67.2605 67.8632 67.696 67.4007 68.2498 67.3836C70.3637 67.3204 72.1667 68.9227 73.1068 70.4487C73.3977 70.9203 73.2512 71.5383 72.7797 71.8293C72.6162 71.9306 72.4336 71.9788 72.254 71.9788Z" fill="#436B1C"/>
<path d="M92.7884 58.6188C92.654 56.6644 91.0296 55.1193 89.0411 55.1193C89.0351 55.1193 89.0301 55.1203 89.024 55.1203C89.0591 54.8243 89.0391 54.5113 88.9438 54.1852C88.6749 53.2682 87.8682 52.5639 86.9191 52.4505C86.1405 52.3582 85.4262 52.6371 84.9255 53.1317C84.449 52.7013 83.8249 52.4324 83.1326 52.4324C81.6488 52.4324 80.4468 53.6354 80.4468 55.1183C80.4468 55.1233 80.4478 55.1273 80.4478 55.1323C78.6449 55.2688 77.2232 56.7727 77.2232 58.6108C77.2232 58.8917 77.2603 59.1636 77.3225 59.4254C75.1765 59.5147 73.4628 61.2785 73.4628 63.4467C73.4628 64.1811 73.6625 64.8673 74.0056 65.4603C73.3464 66.0021 72.925 66.8238 72.925 67.7438C72.925 68.5846 73.2812 69.3381 73.8451 69.8748C76.265 67.8973 78.8074 74.5111 81.8013 79.7915C82.7955 81.5452 93.5379 79.6771 94.3937 80.7667C95.3689 79.8898 95.999 64.6195 96.0261 63.2781C96.0682 61.126 94.7017 59.29 92.7884 58.6188Z" fill="#88C057"/>
<path d="M94.1621 78.6206L94.8775 78.1922C96.2018 77.3976 97.8553 77.3976 99.1786 78.1922L99.894 78.6206C101.218 79.4152 102.872 79.4152 104.195 78.6206L106.217 77.7217C106.514 76.8929 106.72 76.2929 106.803 76.0271C108.689 69.9601 109.904 63.5721 110.069 57.2001C110.136 54.6377 108.017 50.6415 104.496 52.4575C101.036 54.2414 98.5576 61.0829 96.8159 64.3316C94.3417 68.9478 92.3853 73.9683 90.9917 79.0841C92.0532 79.352 93.195 79.2005 94.1621 78.6206Z" fill="#EEAF4B"/>
<path d="M68.0782 77.5902L69.4277 78.3999C70.9778 79.3299 72.9141 79.3299 74.4643 78.3999L74.8114 78.1912C76.1358 77.3966 77.7892 77.3966 79.1125 78.1912L79.8279 78.6196C80.6055 79.0861 81.4964 79.2708 82.3673 79.1895C83.0094 77.1157 82.7937 74.5231 81.7984 72.7684C78.4514 66.8639 75.6672 68.0669 72.9884 70.6303C72.4747 71.1219 71.8466 71.4821 71.1624 71.6778C68.2247 72.5175 66.0566 73.8911 67.2896 77.6314C67.5074 77.4728 67.8104 77.4297 68.0782 77.5902Z" fill="#ED3F32"/>
<path d="M96.7094 76.4364C96.6031 76.4364 96.4937 76.4194 96.3874 76.3832C95.8626 76.2047 95.5817 75.6348 95.7603 75.1101C96.4295 73.1416 98.5786 72.0881 100.544 72.7503C101.466 73.0643 102.47 72.5687 102.783 71.6467C102.961 71.1219 103.529 70.839 104.057 71.0186C104.581 71.1972 104.862 71.7671 104.684 72.2918C104.015 74.2613 101.868 75.3187 99.8999 74.6516C98.9789 74.3385 97.9746 74.8352 97.6606 75.7552C97.5171 76.1746 97.1268 76.4364 96.7094 76.4364Z" fill="#A46F3E"/>
<path d="M99.0822 69.4464C98.9759 69.4464 98.8665 69.4294 98.7602 69.3932C98.2354 69.2147 97.9545 68.6448 98.1331 68.12C98.4572 67.1659 99.1334 66.3944 100.036 65.9489C100.939 65.5034 101.962 65.4362 102.917 65.7603C103.841 66.0753 104.843 65.5787 105.156 64.6556C105.334 64.1299 105.904 63.848 106.428 64.0276C106.953 64.2062 107.234 64.776 107.055 65.3008C106.387 67.2713 104.24 68.3267 102.272 67.6615C101.825 67.509 101.346 67.5401 100.923 67.7488C100.501 67.9575 100.185 68.3177 100.032 68.7652C99.8909 69.1835 99.5006 69.4464 99.0822 69.4464Z" fill="#A46F3E"/>
<path d="M101.456 62.4554C101.35 62.4554 101.24 62.4384 101.133 62.4022C100.608 62.2236 100.327 61.6538 100.506 61.129C101.092 59.4014 102.977 58.4743 104.705 59.0582C105.036 59.1706 105.389 59.1485 105.701 58.995C106.013 58.8415 106.247 58.5746 106.359 58.2446C106.537 57.7198 107.106 57.4379 107.632 57.6165C108.157 57.7951 108.438 58.3649 108.259 58.8897C107.974 59.7274 107.382 60.4047 106.589 60.7949C105.795 61.1862 104.897 61.2434 104.06 60.9595C103.379 60.7277 102.637 61.0939 102.406 61.7752C102.264 62.1925 101.873 62.4554 101.456 62.4554Z" fill="#A46F3E"/>
<path d="M84.4471 66.1415C83.4989 67.4027 82.003 68.8956 82.5789 71.5323L84.128 78.6206H84.129L84.8444 78.1922C86.1687 77.3976 87.8222 77.3976 89.1455 78.1922L89.8609 78.6206C90.4428 78.9698 90.9916 79.0851 90.9916 79.0851C92.037 75.2495 93.3985 71.4671 95.057 67.8692C94.2804 65.9268 92.622 65.2767 91.418 64.6115C91.411 64.6075 91.404 64.6035 91.3979 64.6005C90.6364 64.164 90.5893 63.1216 91.1622 62.4574C91.3879 62.1956 91.4922 61.8354 91.414 61.4742L91.2926 60.9204C91.1591 60.3104 90.5511 59.9211 89.9421 60.0545L83.8451 61.3849C83.2351 61.5183 82.8458 62.1263 82.9792 62.7353L83.1006 63.2892C83.1809 63.6584 83.4357 63.9443 83.7588 64.0838C84.5002 64.4038 84.9527 65.2315 84.5735 65.9449C84.5374 66.0121 84.4952 66.0773 84.4471 66.1415Z" fill="#DAE7EF"/>
<path d="M90.8441 62.935L83.9423 64.4429C83.1808 64.6095 82.4203 64.1219 82.2538 63.3604L82.1545 62.9069C81.9879 62.1454 82.4755 61.3849 83.237 61.2183L90.1387 59.7104C90.9002 59.5438 91.6607 60.0314 91.8273 60.7929L91.9266 61.2464C92.0932 62.0089 91.6056 62.7684 90.8441 62.935Z" fill="white"/>
<path d="M107.97 77.4156L106.22 102.527C106.091 105.035 104.021 107.001 101.511 107.001H73.3475C70.8373 107.001 68.7675 105.035 68.6391 102.527L66.9304 78.2394C66.9013 77.6685 67.5204 77.2963 68.011 77.5902L69.3604 78.3999C70.9105 79.3299 72.8469 79.3299 74.397 78.3999L74.7441 78.1912C76.0685 77.3966 77.7219 77.3966 79.0453 78.1912L79.7607 78.6206C81.085 79.4152 82.7385 79.4152 84.0618 78.6206L84.7772 78.1912C86.1015 77.3966 87.755 77.3966 89.0783 78.1912L89.7937 78.6206C91.118 79.4152 92.7715 79.4152 94.0948 78.6206L94.8102 78.1912C96.1345 77.3966 97.788 77.3966 99.1113 78.1912L99.8267 78.6206C101.151 79.4152 102.804 79.4152 104.128 78.6206L107.526 77.1106C107.742 77.0143 107.983 77.1799 107.97 77.4156Z" fill="#FBD490"/>
<path d="M78.969 94.1387H71.9459C71.3921 94.1387 70.9426 93.6902 70.9426 93.1354C70.9426 92.5806 71.3921 92.1321 71.9459 92.1321H78.969C79.5229 92.1321 79.9723 92.5806 79.9723 93.1354C79.9723 93.6902 79.5229 94.1387 78.969 94.1387Z" fill="#E0B877"/>
<path d="M80.9756 98.1519H71.9459C71.3921 98.1519 70.9426 97.7034 70.9426 97.1486C70.9426 96.5938 71.3921 96.1453 71.9459 96.1453H80.9756C81.5295 96.1453 81.9789 96.5938 81.9789 97.1486C81.9789 97.7034 81.5295 98.1519 80.9756 98.1519Z" fill="#E0B877"/>
<path d="M82.9822 102.165H71.9459C71.3921 102.165 70.9426 101.717 70.9426 101.162C70.9426 100.607 71.3921 100.158 71.9459 100.158H82.9822C83.5361 100.158 83.9855 100.607 83.9855 101.162C83.9855 101.717 83.5361 102.165 82.9822 102.165Z" fill="#E0B877"/>
<path d="M89.0021 102.165H86.9955C86.4417 102.165 85.9922 101.717 85.9922 101.162C85.9922 100.607 86.4417 100.158 86.9955 100.158H89.0021C89.5559 100.158 90.0054 100.607 90.0054 101.162C90.0054 101.717 89.5559 102.165 89.0021 102.165Z" fill="#E0B877"/>
</g>
<defs>
<clipPath id="clip0">
<rect x="61" y="52" width="55" height="55" fill="white"/>
</clipPath>
</defs>
</svg>
